<?xml version="1.0" encoding="utf-8"?>
<!-- Generator: Adobe Illustrator 27.6.0, SVG Export Plug-In . SVG Version: 6.00 Build 0)  -->
<svg version="1.1" id="Layer_1" xmlns="http://www.w3.org/2000/svg" xmlns:xlink="http://www.w3.org/1999/xlink" x="0px" y="0px"
	 viewBox="0 0 306 358" style="enable-background:new 0 0 306 358;" xml:space="preserve">
<style type="text/css">
	.st0{fill:none;}
</style>
<g>
	<path d="M22.7,115.7c4.4,0,8-14.5,8-32.4c0-17.9-3.6-32.4-8-32.4c-4.4,0-8,14.5-8,32.4C14.7,101.2,18.3,115.7,22.7,115.7z"/>
	<path d="M257.6,18c-4.2,0-7.9,9.3-10.5,24.2C242.9,16.7,236.2,0,228.6,0c-9,0-16.9,23.5-20.6,57.7c-3.6-24.9-9.1-40.8-15.3-40.8
		c-8.6,0-16,31.2-18.7,74.7c-5.1-22.3-12.5-36.3-20.7-36.3c-8.2,0-15.6,14-20.7,36.3C129.8,48.2,122.5,17,113.8,17
		c-6.2,0-11.7,15.9-15.3,40.8C94.8,23.5,87,0,77.9,0c-7.6,0-14.4,16.7-18.5,42.3C56.9,27.4,53.1,18,48.9,18
		c-7.8,0-14.1,32.4-14.1,72.4c0,40,6.3,72.4,14.1,72.4c3.2,0,6.2-5.5,8.5-14.7c3.7,33.8,11.5,57,20.5,57c7,0,13.2-13.9,17.4-35.9
		c2.9,41.8,10.1,71.5,18.5,71.5c5.3,0,10.1-11.8,13.7-30.9c4.3,39.5,14.2,67.2,25.8,67.2s21.5-27.7,25.8-67.2
		c3.6,19.1,8.4,30.9,13.7,30.9c8.4,0,15.6-29.7,18.5-71.5c4.2,22,10.4,35.9,17.4,35.9c9,0,16.8-23.2,20.5-57
		c2.4,9.2,5.3,14.7,8.5,14.7c7.8,0,14.1-32.4,14.1-72.4C271.7,50.5,265.4,18,257.6,18L257.6,18z"/>
	<path d="M283.8,115.7c4.4,0,8-14.5,8-32.4c0-17.9-3.6-32.4-8-32.4s-8,14.5-8,32.4C275.8,101.2,279.4,115.7,283.8,115.7z"/>
</g>
<rect x="0.8" y="305.1" class="st0" width="304.8" height="52.4"/>
<g>
	<path d="M58,357.5h43.1v-14.1H78.3v-6.5h21.4v-11.6H78.3v-6.1h22.8v-14.1H58V357.5z"/>
	<path d="M106,357.5h43.1v-14.1h-22.8v-6.5h21.4v-11.6h-21.4v-6.1h22.8v-14.1H106V357.5z"/>
	<path d="M305.6,357.5c-2.9-8-7.1-16.6-12.6-26.1c6.5-1.9,10.3-6,10.3-12.2c0-9.5-8.8-14-22.7-14h-28.6v52.4h20.4v-21.7
		c4.5,7.6,7.9,14.8,10.1,21.7H305.6z M272.6,328.5v-9.3h7.1c3,0,4.7,1.6,4.7,4.6c0,3-1.7,4.6-4.7,4.6H272.6z"/>
	<path d="M204.1,357.5h43.1v-14.1h-22.8v-6.5h21.4v-11.6h-21.4v-6.1h22.8v-14.1h-43.1V357.5z"/>
	<path d="M154,319.3h21.1c-8.7,7.1-15.9,15.2-21.5,24.1v14.1h46.3v-14.1h-23.2c5.3-7.7,12.7-15.4,23.2-24.1v-14.1H154V319.3z"/>
	<path d="M27.1,305.1H0.8v52.4h26.3c16.3,0,27.8-10.8,27.8-26.2C54.8,315.9,43.3,305.1,27.1,305.1z M26,343.3h-4.8v-24.1H26
		c5.1,0,7.8,3.4,7.8,12C33.8,339.9,31.1,343.3,26,343.3z"/>
</g>
</svg>
