<svg width="1258" height="217" viewBox="0 0 1258 217" fill="none" xmlns="http://www.w3.org/2000/svg">
<path d="M235.632 216.143H413.481V157.795H319.507V131.146H407.871V83.4575H319.507V58.4913H413.481V0.143311H235.632V216.143Z" fill="black"/>
<path d="M433.678 216.143H611.527V157.795H517.553V131.146H605.917V83.4575H517.553V58.4913H611.527V0.143311H433.678V216.143Z" fill="black"/>
<path d="M1257 216.143C1244.88 183.115 1227.93 147.873 1205.13 108.37C1231.8 100.55 1247.75 83.738 1247.75 57.9302C1247.75 18.6576 1211.56 0.143311 1154.33 0.143311H1036.51V216.143H1120.67V126.795C1139.37 158.286 1153.14 188.001 1162.19 216.143H1257ZM1120.67 96.6419V58.4913H1149.84C1162.19 58.4913 1169.2 65.2237 1169.2 77.5666C1169.2 89.9094 1162.19 96.6419 1149.84 96.6419H1120.67Z" fill="black"/>
<path d="M838.469 216.143H1016.32V157.795H922.344V131.146H1010.71V83.4575H922.344V58.4913H1016.32V0.143311H838.469V216.143Z" fill="black"/>
<path d="M631.727 58.4913H718.562C682.534 87.9682 652.884 121.356 630.044 157.795V216.143H821.077V157.795H725.594C747.475 125.962 778.048 94.2631 821.077 58.4913V0.143311H631.727V58.4913Z" fill="black"/>
<path d="M108.28 0.143066H0V216.143H108.28C175.324 216.143 222.732 171.54 222.732 108.143C222.732 44.7456 175.324 0.143066 108.28 0.143066ZM103.792 157.795H84.1557V58.491H103.792C124.831 58.491 136.052 72.517 136.052 108.143C136.052 143.769 124.831 157.795 103.792 157.795Z" fill="black"/>
</svg>
