<svg width="1258" height="216" viewBox="0 0 1258 216" fill="none" xmlns="http://www.w3.org/2000/svg">
<path d="M235.632 216H413.481V157.652H319.507V131.003H407.871V83.3144H319.507V58.3482H413.481V0.000244141H235.632V216Z" fill="white"/>
<path d="M433.678 216H611.527V157.652H517.553V131.003H605.917V83.3144H517.553V58.3482H611.527V0.000244141H433.678V216Z" fill="white"/>
<path d="M1257 216C1244.88 182.972 1227.93 147.73 1205.13 108.227C1231.8 100.406 1247.75 83.5949 1247.75 57.7872C1247.75 18.5145 1211.56 0.000244141 1154.33 0.000244141H1036.51V216H1120.67V126.652C1139.37 158.143 1153.14 187.858 1162.19 216H1257ZM1120.67 96.4988V58.3482H1149.84C1162.19 58.3482 1169.2 65.0807 1169.2 77.4235C1169.2 89.7664 1162.19 96.4988 1149.84 96.4988H1120.67Z" fill="white"/>
<path d="M838.469 216H1016.32V157.652H922.344V131.003H1010.71V83.3144H922.344V58.3482H1016.32V0.000244141H838.469V216Z" fill="white"/>
<path d="M631.727 58.3482H718.562C682.534 87.8252 652.884 121.213 630.044 157.652V216H821.077V157.652H725.594C747.475 125.819 778.048 94.12 821.077 58.3482V0.000244141H631.727V58.3482Z" fill="white"/>
<path d="M108.28 0H0V216H108.28C175.324 216 222.732 171.397 222.732 108C222.732 44.6025 175.324 0 108.28 0ZM103.792 157.652H84.1557V58.348H103.792C124.831 58.348 136.052 72.3739 136.052 108C136.052 143.626 124.831 157.652 103.792 157.652Z" fill="white"/>
</svg>
